<svg width="19" height="18" viewBox="0 0 19 18" fill="none" xmlns="http://www.w3.org/2000/svg">
<path d="M3.27705 17.3828C2.40097 17.3828 1.57776 17.0414 0.958632 16.4224C-0.319544 15.1441 -0.319544 13.064 0.958632 11.7858L11.0941 1.64983C11.9107 0.83241 12.9975 0.382812 14.153 0.382812C15.3086 0.382812 16.3954 0.83241 17.212 1.64983C18.0293 2.46702 18.4795 3.55318 18.4795 4.70862C18.4795 5.86427 18.0298 6.9504 17.2127 7.76711L9.23381 15.7452C8.99426 15.9846 8.60634 15.9846 8.3669 15.7452C8.12735 15.5057 8.12735 15.1178 8.3669 14.8782L16.3456 6.90008C16.9312 6.31455 17.2533 5.53618 17.2533 4.70862C17.2533 3.8812 16.9305 3.10235 16.345 2.51674C15.7594 1.93121 14.981 1.60897 14.153 1.60897C13.3251 1.60897 12.5467 1.93121 11.9611 2.51674L1.82566 12.6527C1.02579 13.4533 1.02579 14.755 1.82566 15.5554C2.60154 16.3302 3.9524 16.3302 4.72825 15.5554L11.5341 8.74902C11.7191 8.56396 11.8252 8.3078 11.8252 8.04668C11.8252 7.78191 11.7216 7.53233 11.5336 7.3443C11.1468 6.95754 10.5163 6.95638 10.1295 7.3443L5.48148 11.9929C5.24208 12.2325 4.85397 12.2325 4.61457 11.9929C4.37502 11.7535 4.37502 11.3654 4.61457 11.126L9.26249 6.47743C10.1271 5.61288 11.5348 5.61288 12.4005 6.47743C12.8203 6.89707 13.0513 7.45457 13.0513 8.04672C13.0513 8.63101 12.8142 9.20283 12.4011 9.61593L5.59532 16.4224C4.97618 17.0414 4.15294 17.3828 3.27705 17.3828Z" fill="#333333"/>
</svg>
