<svg width="32" height="23" viewBox="0 0 32 23" fill="none" xmlns="http://www.w3.org/2000/svg">
<path d="M21.221 0.333002C21.119 0.223844 20.9961 0.136256 20.8597 0.075422C20.7232 0.014588 20.576 -0.0182556 20.4266 -0.0211656C20.2772 -0.0240756 20.1288 0.00300724 19.9901 0.0584805C19.8514 0.113954 19.7252 0.19669 19.619 0.301792C19.5129 0.406895 19.4288 0.532228 19.372 0.670375C19.3151 0.808521 19.2865 0.956673 19.2879 1.10606C19.2893 1.25545 19.3207 1.40304 19.3801 1.5401C19.4395 1.67716 19.5259 1.8009 19.634 1.904L27.681 9.951H1.12701C0.980105 9.94995 0.834435 9.97786 0.698324 10.0331C0.562213 10.0884 0.438331 10.17 0.333759 10.2731C0.229186 10.3763 0.145974 10.4991 0.0888779 10.6345C0.0317823 10.7698 0.00192311 10.9151 0.00100708 11.062C0.00206119 11.3606 0.121137 11.6466 0.332262 11.8577C0.543388 12.0689 0.829432 12.1879 1.12801 12.189H27.681L19.634 20.224C19.4276 20.4366 19.3121 20.7212 19.3121 21.0175C19.3121 21.3138 19.4276 21.5984 19.634 21.811C19.7375 21.9164 19.861 22.0002 19.9972 22.0574C20.1335 22.1145 20.2798 22.144 20.4275 22.144C20.5753 22.144 20.7215 22.1145 20.8578 22.0574C20.994 22.0002 21.1175 21.9164 21.221 21.811L31.173 11.859C31.3791 11.6495 31.4946 11.3674 31.4946 11.0735C31.4946 10.7796 31.3791 10.4975 31.173 10.288L21.221 0.333002Z" fill="black"/>
</svg>
