<svg width="26" height="26" fill="none" xmlns="http://www.w3.org/2000/svg"><path d="M17.615 1.3H8.398C4.485 1.3 1.3 4.472 1.3 8.372v9.256c0 3.9 3.185 7.072 7.098 7.072h9.204c3.926 0 7.098-3.172 7.098-7.072V8.372c.013-3.9-3.172-7.072-7.085-7.072zm5.135 16.9a4.555 4.555 0 01-4.55 4.55H7.8a4.555 4.555 0 01-4.55-4.55V7.8A4.555 4.555 0 017.8 3.25h10.4a4.555 4.555 0 014.55 4.55v10.4z" fill="#F0F0F0" fill-opacity=".5"/><path d="M19.331 8.255a1.417 1.417 0 100-2.834 1.417 1.417 0 000 2.834zm-6.292-1.17c-3.315 0-6.019 2.678-6.019 5.98 0 3.315 2.691 5.993 6.019 5.993 3.328 0 6.019-2.68 6.019-5.993-.013-3.302-2.704-5.98-6.019-5.98zm.065 9.815a3.892 3.892 0 01-3.9-3.887 3.892 3.892 0 013.9-3.887c2.158 0 3.9 1.742 3.9 3.887a3.892 3.892 0 01-3.9 3.887z" fill="#F0F0F0" fill-opacity=".5"/></svg>