<svg width="150" height="21" fill="none" xmlns="http://www.w3.org/2000/svg"><path d="M6.04 11.96c0 .785.072 1.427.218 1.929.146.492.383.884.71 1.176.329.291.753.492 1.272.601.529.11 1.176.164 1.942.164h9.625V20H9.143c-1.477 0-2.735-.119-3.774-.355-1.03-.247-1.873-.62-2.53-1.122a4.43 4.43 0 01-1.435-1.927C1.113 15.82.967 14.9.967 13.834V1.214h5.072v10.747zM39.809 20v-1.846a15.15 15.15 0 01-2.092.944 19.758 19.758 0 01-4.799 1.121c-.848.1-1.704.15-2.57.15-1.012 0-1.992-.096-2.94-.287-.939-.191-1.773-.501-2.502-.93a5.196 5.196 0 01-1.763-1.681c-.438-.693-.657-1.54-.657-2.543 0-1.267.347-2.32 1.04-3.159.692-.847 1.75-1.54 3.171-2.078 1.422-.537 3.218-.952 5.387-1.244 2.178-.291 4.753-.52 7.725-.683v-.397c0-.31-.082-.615-.246-.916-.165-.31-.465-.579-.903-.806-.428-.237-1.02-.429-1.777-.575-.748-.146-1.705-.218-2.871-.218-.92 0-1.832.05-2.735.15-.893.091-1.759.219-2.597.383a27.15 27.15 0 00-2.366.574c-.747.219-1.426.447-2.037.684V2.13a37.777 37.777 0 012.147-.479 38.015 38.015 0 012.474-.396c.857-.119 1.723-.21 2.598-.274a30.737 30.737 0 012.516-.109c1.577 0 3.03.132 4.361.397 1.33.255 2.475.656 3.432 1.203.966.547 1.718 1.24 2.255 2.078.547.838.82 1.836.82 2.994V20h-5.07zm0-8.572c-1.95.073-3.61.177-4.977.314-1.358.137-2.488.296-3.39.479-.903.182-1.614.378-2.133.588-.51.21-.894.423-1.149.642-.255.219-.415.438-.478.656-.055.22-.082.42-.082.602 0 .219.059.433.177.643.119.2.324.378.616.533.3.155.697.278 1.189.369.492.091 1.112.137 1.86.137.829 0 1.64-.064 2.433-.192a16.68 16.68 0 002.256-.52 15.18 15.18 0 001.996-.792 12.52 12.52 0 001.682-.985v-2.474zM68.574 20V9.473c0-.702-.059-1.336-.177-1.9-.119-.575-.342-1.063-.67-1.464-.32-.41-.77-.724-1.354-.943-.574-.228-1.317-.342-2.229-.342-.692 0-1.421.096-2.187.287-.757.183-1.508.429-2.256.739a16.3 16.3 0 00-2.146 1.08c-.675.41-1.276.838-1.805 1.285V20h-5.072V1.215h5.072v2.57a38.125 38.125 0 012.037-1.08c.72-.365 1.486-.693 2.297-.984a18.148 18.148 0 012.584-.711 14.686 14.686 0 012.885-.274c1.267 0 2.397.155 3.39.465 1.003.3 1.85.734 2.543 1.299a5.495 5.495 0 011.586 2.037c.374.793.56 1.682.56 2.666V20h-5.058zm31.815-.93c-1.54.51-3.081.875-4.621 1.094a31.924 31.924 0 01-4.704.342c-2.05 0-3.878-.219-5.482-.656-1.595-.447-2.94-1.09-4.033-1.928a8.324 8.324 0 01-2.502-3.076c-.574-1.213-.861-2.584-.861-4.116 0-1.421.287-2.738.86-3.95a9.44 9.44 0 012.462-3.173c1.066-.902 2.351-1.604 3.855-2.105 1.504-.51 3.181-.766 5.031-.766 1.705 0 3.264.233 4.676.698 1.422.455 2.639 1.134 3.65 2.037 1.022.902 1.81 2.014 2.366 3.336.565 1.321.848 2.843.848 4.566v1.258H83.422c.164.592.433 1.135.806 1.627.383.492.898.911 1.545 1.258.648.346 1.44.615 2.38.806.947.192 2.078.287 3.39.287.93 0 1.841-.054 2.734-.164a25.69 25.69 0 002.502-.45 19.962 19.962 0 002.092-.63c.629-.228 1.135-.456 1.518-.683v4.388zm-3.5-10.158a4.274 4.274 0 00-.424-1.435c-.228-.502-.593-.953-1.094-1.354-.501-.401-1.157-.73-1.969-.984-.81-.265-1.823-.397-3.035-.397-1.14 0-2.124.141-2.953.424-.83.283-1.527.633-2.092 1.053-.556.419-.989.87-1.299 1.353-.31.483-.51.93-.601 1.34h13.467zm19.906-3.609V20h-5.072V5.303h-7.971V1.215h21.027v4.088h-7.984zM144.07 20v-1.846c-.647.356-1.344.67-2.091.944a20.1 20.1 0 01-2.311.697c-.802.191-1.632.333-2.488.424-.848.1-1.705.15-2.571.15-1.011 0-1.991-.096-2.939-.287-.939-.191-1.773-.501-2.502-.93a5.202 5.202 0 01-1.764-1.681c-.437-.693-.656-1.54-.656-2.543 0-1.267.346-2.32 1.039-3.159.693-.847 1.75-1.54 3.172-2.078 1.422-.537 3.217-.952 5.387-1.244 2.178-.291 4.753-.52 7.724-.683v-.397c0-.31-.082-.615-.246-.916-.164-.31-.465-.579-.902-.806-.429-.237-1.021-.429-1.777-.575-.748-.146-1.705-.218-2.872-.218-.92 0-1.832.05-2.734.15a27.326 27.326 0 00-4.963.957c-.747.219-1.426.447-2.037.684V2.13a37.761 37.761 0 012.147-.479 37.962 37.962 0 012.474-.396c.857-.119 1.723-.21 2.598-.274a30.713 30.713 0 012.515-.109c1.577 0 3.031.132 4.362.397 1.33.255 2.474.656 3.431 1.203.967.547 1.719 1.24 2.256 2.078.547.838.821 1.836.821 2.994V20h-5.073zm0-8.572c-1.95.073-3.609.177-4.976.314-1.358.137-2.489.296-3.391.479-.902.182-1.613.378-2.133.588-.51.21-.893.423-1.148.642-.255.219-.415.438-.479.656-.054.22-.082.42-.082.602 0 .219.06.433.178.643.119.2.324.378.615.533.301.155.698.278 1.19.369.492.091 1.112.137 1.859.137.83 0 1.641-.064 2.434-.192a16.4 16.4 0 002.256-.52 15.185 15.185 0 001.996-.792c.629-.31 1.189-.638 1.681-.985v-2.474z" fill="#fff" fill-opacity=".4"/></svg>