<svg width="26" height="26" fill="none" xmlns="http://www.w3.org/2000/svg"><path d="M7.501 23.257V9.321H2.873v13.936h4.628zM5.187 7.423c1.612 0 2.626-1.066 2.626-2.405C7.787 3.64 6.812 2.6 5.226 2.6 3.64 2.6 2.6 3.64 2.6 5.005c0 1.34 1.001 2.405 2.561 2.405h.026v.013zm4.888 15.834h4.628V15.47c0-.416.026-.832.156-1.13.338-.833 1.092-1.69 2.379-1.69 1.677 0 2.34 1.273 2.34 3.145v7.462h4.628v-7.995c0-4.277-2.288-6.266-5.33-6.266-2.496 0-3.601 1.391-4.212 2.353h.026V9.321h-4.615c.052 1.3 0 13.936 0 13.936z" fill="#F0F0F0" fill-opacity=".5"/></svg>