<svg width="26" height="26" fill="none" xmlns="http://www.w3.org/2000/svg"><path d="M24.7 6.162a9.863 9.863 0 01-2.755.754 4.83 4.83 0 002.109-2.652 9.53 9.53 0 01-3.047 1.157A4.787 4.787 0 0017.503 3.9a4.807 4.807 0 00-4.675 5.9A13.627 13.627 0 012.93 4.784 4.766 4.766 0 002.28 7.2c0 1.665.847 3.134 2.136 3.992a4.75 4.75 0 01-2.176-.6v.053a4.822 4.822 0 003.852 4.72 5.308 5.308 0 01-2.168.078 4.811 4.811 0 004.486 3.34 9.707 9.707 0 01-5.963 2.04c-.39 0-.77-.012-1.147-.064a13.57 13.57 0 007.36 2.158c8.83 0 13.661-7.318 13.661-13.65 0-.208-.005-.416-.017-.624A9.793 9.793 0 0024.7 6.162z" fill="#F0F0F0" fill-opacity=".5"/></svg>